<svg xmlns="http://www.w3.org/2000/svg" xmlns:xlink="http://www.w3.org/1999/xlink" width="512" zoomAndPan="magnify" viewBox="0 0 384 383.999986" height="512" preserveAspectRatio="xMidYMid meet" version="1.0"><path fill="#12a6d4" d="M 377.804688 192 C 377.804688 294.628906 294.628906 377.804688 192 377.804688 C 89.371094 377.804688 6.195312 294.628906 6.195312 192 C 6.195312 89.371094 89.371094 6.195312 192 6.195312 C 294.628906 6.195312 377.804688 89.371094 377.804688 192 " fill-opacity="1" fill-rule="nonzero"/><path fill="#f5f7fa" d="M 294.195312 275.613281 L 275.613281 294.195312 L 253.933594 272.515625 C 261 267.195312 267.195312 261 272.515625 253.933594 L 294.195312 275.613281 " fill-opacity="1" fill-rule="nonzero"/><path fill="#ff958a" d="M 303.484375 266.324219 L 340.644531 303.484375 C 330.121094 317.539062 317.539062 330.121094 303.484375 340.644531 L 266.324219 303.484375 L 303.484375 266.324219 " fill-opacity="1" fill-rule="nonzero"/><path fill="#f5f7fa" d="M 30.96875 55.742188 L 30.96875 241.546875 L 116.007812 241.546875 C 109.183594 228.605469 105.289062 213.871094 105.289062 198.195312 C 105.289062 146.902344 146.902344 105.289062 198.195312 105.289062 C 249.484375 105.289062 291.097656 146.902344 291.097656 198.195312 C 291.097656 213.871094 287.203125 228.605469 280.378906 241.546875 L 315.871094 241.546875 L 315.871094 55.742188 L 30.96875 55.742188 " fill-opacity="1" fill-rule="nonzero"/><path fill="#f9d48a" d="M 266.324219 198.195312 C 266.324219 160.597656 235.863281 130.066406 198.195312 130.066406 C 160.597656 130.066406 130.066406 160.597656 130.066406 198.195312 C 130.066406 235.863281 160.597656 266.324219 198.195312 266.324219 C 235.863281 266.324219 266.324219 235.863281 266.324219 198.195312 Z M 272.515625 253.933594 C 267.195312 261 261 267.195312 253.933594 272.515625 C 238.453125 284.152344 219.121094 291.097656 198.195312 291.097656 C 162.582031 291.097656 131.613281 271.039062 116.007812 241.546875 C 109.183594 228.605469 105.289062 213.871094 105.289062 198.195312 C 105.289062 146.902344 146.902344 105.289062 198.195312 105.289062 C 249.484375 105.289062 291.097656 146.902344 291.097656 198.195312 C 291.097656 213.871094 287.203125 228.605469 280.378906 241.546875 C 278.03125 245.878906 275.417969 250.039062 272.515625 253.933594 " fill-opacity="1" fill-rule="nonzero"/><path fill="#f5f7fa" d="M 198.195312 130.066406 C 235.863281 130.066406 266.324219 160.597656 266.324219 198.195312 C 266.324219 235.863281 235.863281 266.324219 198.195312 266.324219 C 160.597656 266.324219 130.066406 235.863281 130.066406 198.195312 C 130.066406 160.597656 160.597656 130.066406 198.195312 130.066406 " fill-opacity="1" fill-rule="nonzero"/><path fill="#f9d48a" d="M 30.96875 55.742188 L 30.96875 6.195312 L 315.871094 6.195312 L 315.871094 55.742188 L 30.96875 55.742188 " fill-opacity="1" fill-rule="nonzero"/><path fill="#232323" d="M 303.917969 332.324219 L 275.082031 303.484375 L 303.484375 275.082031 L 332.324219 303.917969 C 323.925781 314.417969 314.417969 323.925781 303.917969 332.324219 Z M 12.386719 192 C 12.386719 169.523438 16.667969 147.316406 24.773438 126.582031 L 24.773438 247.742188 L 112.5 247.742188 C 129.675781 277.304688 161.613281 297.289062 198.195312 297.289062 C 218.539062 297.289062 237.460938 291.121094 253.210938 280.546875 L 266.855469 294.195312 L 257.566406 303.484375 L 293.878906 339.796875 C 264.917969 359.832031 229.816406 371.613281 192 371.613281 C 92.976562 371.613281 12.386719 291.046875 12.386719 192 Z M 309.675781 12.386719 L 309.675781 49.546875 L 37.160156 49.546875 L 37.160156 12.386719 Z M 111.484375 198.195312 C 111.484375 150.386719 150.386719 111.484375 198.195312 111.484375 C 246 111.484375 284.902344 150.386719 284.902344 198.195312 C 284.902344 246 246 284.902344 198.195312 284.902344 C 150.386719 284.902344 111.484375 246 111.484375 198.195312 Z M 37.160156 61.933594 L 309.675781 61.933594 L 309.675781 235.355469 L 290.007812 235.355469 C 294.675781 223.863281 297.289062 211.332031 297.289062 198.195312 C 297.289062 143.539062 252.847656 99.097656 198.195312 99.097656 C 143.539062 99.097656 99.097656 143.539062 99.097656 198.195312 C 99.097656 211.332031 101.710938 223.863281 106.378906 235.355469 L 37.160156 235.355469 Z M 275.613281 285.433594 L 263.082031 272.902344 C 266.589844 269.878906 269.878906 266.589844 272.902344 263.082031 L 285.433594 275.613281 Z M 371.613281 192 C 371.613281 229.816406 359.832031 264.917969 339.796875 293.878906 L 303.484375 257.566406 L 294.195312 266.855469 L 280.546875 253.210938 C 281.734375 251.445312 282.796875 249.582031 283.886719 247.742188 L 322.066406 247.742188 L 322.066406 68.226562 C 353.660156 101.46875 371.613281 145.863281 371.613281 192 Z M 322.066406 50.804688 L 322.066406 0 L 24.773438 0 L 24.773438 97.695312 C 8.589844 126.339844 0 158.902344 0 192 C 0 297.871094 86.128906 384 192 384 C 297.871094 384 384 297.871094 384 192 C 384 138.460938 361.425781 87.097656 322.066406 50.804688 " fill-opacity="1" fill-rule="nonzero"/><path fill="#232323" d="M 61.933594 24.773438 L 49.546875 24.773438 L 49.546875 37.160156 L 61.933594 37.160156 L 61.933594 24.773438 " fill-opacity="1" fill-rule="nonzero"/><path fill="#232323" d="M 86.710938 24.773438 L 74.324219 24.773438 L 74.324219 37.160156 L 86.710938 37.160156 L 86.710938 24.773438 " fill-opacity="1" fill-rule="nonzero"/><path fill="#232323" d="M 111.484375 24.773438 L 99.097656 24.773438 L 99.097656 37.160156 L 111.484375 37.160156 L 111.484375 24.773438 " fill-opacity="1" fill-rule="nonzero"/><path fill="#232323" d="M 198.21875 136.257812 C 232.355469 136.257812 260.152344 164.054688 260.152344 198.21875 C 260.152344 232.355469 232.355469 260.152344 198.21875 260.152344 C 164.054688 260.152344 136.257812 232.355469 136.257812 198.21875 C 136.257812 164.054688 164.054688 136.257812 198.21875 136.257812 Z M 198.21875 272.539062 C 239.203125 272.539062 272.539062 239.203125 272.539062 198.21875 C 272.539062 157.210938 239.203125 123.871094 198.21875 123.871094 C 157.210938 123.871094 123.871094 157.210938 123.871094 198.21875 C 123.871094 239.203125 157.210938 272.539062 198.21875 272.539062 " fill-opacity="1" fill-rule="nonzero"/><path fill="#232323" d="M 61.933594 74.324219 L 49.546875 74.324219 L 49.546875 86.710938 L 61.933594 86.710938 L 61.933594 74.324219 " fill-opacity="1" fill-rule="nonzero"/><path fill="#232323" d="M 297.289062 74.324219 L 74.324219 74.324219 L 74.324219 86.710938 L 297.289062 86.710938 L 297.289062 74.324219 " fill-opacity="1" fill-rule="nonzero"/><path fill="#232323" d="M 136.257812 99.097656 L 49.546875 99.097656 L 49.546875 111.484375 L 136.257812 111.484375 L 136.257812 99.097656 " fill-opacity="1" fill-rule="nonzero"/><path fill="#232323" d="M 49.546875 136.257812 L 86.710938 136.257812 L 86.710938 123.871094 L 49.546875 123.871094 L 49.546875 136.257812 " fill-opacity="1" fill-rule="nonzero"/><path fill="#232323" d="M 49.546875 161.03125 L 86.710938 161.03125 L 86.710938 148.644531 L 49.546875 148.644531 L 49.546875 161.03125 " fill-opacity="1" fill-rule="nonzero"/><path fill="#232323" d="M 49.546875 185.804688 L 86.710938 185.804688 L 86.710938 173.417969 L 49.546875 173.417969 L 49.546875 185.804688 " fill-opacity="1" fill-rule="nonzero"/><path fill="#232323" d="M 49.546875 210.582031 L 86.710938 210.582031 L 86.710938 198.195312 L 49.546875 198.195312 L 49.546875 210.582031 " fill-opacity="1" fill-rule="nonzero"/></svg>